# xmcd
#
# Track frame offsets:
#	150
#	1251
#	20615
#	27592
#	35596
#	53773
#	54953
#	60255
#	69725
#	89566
#	90768
#	95713
#	104662
#	122702
#	123870
#	128907
#	138479
#	156971
#	158040
#	163156
#	170890
#	191286
#	192551
#	210806
#	219871
#	227759
#	233727
#	251482
#
# Disc length: 3915 seconds
#
# Revision: 1
# Processed by: cddbd v1.5.1PL0 Copyright (c) Steve Scherf et al.
# Submitted via: CDex 1.50Beta5
#
DISCID=7d0f491c
DTITLE=NHK - 英語リスニング入門2003.04B
DYEAR=1900
DGENRE=Other
TTITLE0=4B-01
TTITLE1=4B-02
TTITLE2=4B-03
TTITLE3=4B-04
TTITLE4=4B-05
TTITLE5=4B-06
TTITLE6=4B-07
TTITLE7=4B-08
TTITLE8=4B-09
TTITLE9=4B-10
TTITLE10=4B-11
TTITLE11=4B-12
TTITLE12=4B-13
TTITLE13=4B-14
TTITLE14=4B-15
TTITLE15=4B-16
TTITLE16=4B-17
TTITLE17=4B-18
TTITLE18=4B-19
TTITLE19=4B-20
TTITLE20=4B-21
TTITLE21=4B-22
TTITLE22=4B-23
TTITLE23=4B-24
TTITLE24=4B-25
TTITLE25=4B-26
TTITLE26=4B-27
TTITLE27=4B-28
EXTD=
EXTT0=
EXTT1=
EXTT2=
EXTT3=
EXTT4=
EXTT5=
EXTT6=
EXTT7=
EXTT8=
EXTT9=
EXTT10=
EXTT11=
EXTT12=
EXTT13=
EXTT14=
EXTT15=
EXTT16=
EXTT17=
EXTT18=
EXTT19=
EXTT20=
EXTT21=
EXTT22=
EXTT23=
EXTT24=
EXTT25=
EXTT26=
EXTT27=
PLAYORDER=
